<mxfile host="app.diagrams.net" modified="2023-07-08T02:32:26.404Z" agent="Mozilla/5.0 (Windows NT 10.0; Win64; x64) AppleWebKit/537.36 (KHTML, like Gecko) Chrome/114.0.0.0 Safari/537.36" etag="qgTyoPAYgrnKBVq3YS2G" version="21.6.1" type="device">
  <diagram name="Page-1" id="XJneg7DV04CmAogFe1WB">
    <mxGraphModel dx="1730" dy="452" grid="1" gridSize="10" guides="1" tooltips="1" connect="1" arrows="1" fold="1" page="1" pageScale="1" pageWidth="850" pageHeight="1100" math="0" shadow="0">
      <root>
        <mxCell id="0" />
        <mxCell id="1" parent="0" />
        <mxCell id="FtSz2_RMuhb_fogJ2mzA-27" style="edgeStyle=orthogonalEdgeStyle;rounded=0;orthogonalLoop=1;jettySize=auto;html=1;" parent="1" source="FtSz2_RMuhb_fogJ2mzA-2" target="FtSz2_RMuhb_fogJ2mzA-5" edge="1">
          <mxGeometry relative="1" as="geometry">
            <Array as="points">
              <mxPoint x="20" y="260" />
              <mxPoint x="20" y="545" />
            </Array>
          </mxGeometry>
        </mxCell>
        <mxCell id="FtSz2_RMuhb_fogJ2mzA-28" value="School Details" style="edgeLabel;html=1;align=center;verticalAlign=middle;resizable=0;points=[];" parent="FtSz2_RMuhb_fogJ2mzA-27" vertex="1" connectable="0">
          <mxGeometry x="-0.4743" y="-3" relative="1" as="geometry">
            <mxPoint as="offset" />
          </mxGeometry>
        </mxCell>
        <mxCell id="FtSz2_RMuhb_fogJ2mzA-2" value="Admin" style="html=1;dashed=0;whiteSpace=wrap;fillColor=#ffe6cc;strokeColor=#d79b00;" parent="1" vertex="1">
          <mxGeometry x="80" y="235" width="100" height="50" as="geometry" />
        </mxCell>
        <mxCell id="FtSz2_RMuhb_fogJ2mzA-3" value="Facilitator" style="html=1;dashed=0;whiteSpace=wrap;fillColor=#ffe6cc;strokeColor=#d79b00;" parent="1" vertex="1">
          <mxGeometry x="50" y="470" width="100" height="50" as="geometry" />
        </mxCell>
        <mxCell id="FtSz2_RMuhb_fogJ2mzA-33" style="edgeStyle=orthogonalEdgeStyle;rounded=0;orthogonalLoop=1;jettySize=auto;html=1;" parent="1" source="FtSz2_RMuhb_fogJ2mzA-5" target="FtSz2_RMuhb_fogJ2mzA-16" edge="1">
          <mxGeometry relative="1" as="geometry">
            <Array as="points">
              <mxPoint x="560" y="565" />
              <mxPoint x="560" y="565" />
            </Array>
          </mxGeometry>
        </mxCell>
        <mxCell id="FtSz2_RMuhb_fogJ2mzA-34" value="Certificate Details" style="edgeLabel;html=1;align=center;verticalAlign=middle;resizable=0;points=[];" parent="FtSz2_RMuhb_fogJ2mzA-33" vertex="1" connectable="0">
          <mxGeometry x="-0.228" y="-1" relative="1" as="geometry">
            <mxPoint y="-2" as="offset" />
          </mxGeometry>
        </mxCell>
        <mxCell id="FtSz2_RMuhb_fogJ2mzA-42" style="edgeStyle=orthogonalEdgeStyle;rounded=0;orthogonalLoop=1;jettySize=auto;html=1;" parent="1" source="FtSz2_RMuhb_fogJ2mzA-5" target="FtSz2_RMuhb_fogJ2mzA-2" edge="1">
          <mxGeometry relative="1" as="geometry">
            <Array as="points">
              <mxPoint x="-40" y="570" />
              <mxPoint x="-40" y="240" />
            </Array>
          </mxGeometry>
        </mxCell>
        <mxCell id="FtSz2_RMuhb_fogJ2mzA-43" value="Certificate Details" style="edgeLabel;html=1;align=center;verticalAlign=middle;resizable=0;points=[];" parent="FtSz2_RMuhb_fogJ2mzA-42" vertex="1" connectable="0">
          <mxGeometry x="0.3655" relative="1" as="geometry">
            <mxPoint y="34" as="offset" />
          </mxGeometry>
        </mxCell>
        <mxCell id="FtSz2_RMuhb_fogJ2mzA-5" value="1.3 Generate Certificate" style="shape=ellipse;html=1;dashed=0;whiteSpace=wrap;aspect=fixed;perimeter=ellipsePerimeter;fillColor=#f8cecc;strokeColor=#b85450;" parent="1" vertex="1">
          <mxGeometry x="360" y="480" width="100" height="100" as="geometry" />
        </mxCell>
        <mxCell id="FtSz2_RMuhb_fogJ2mzA-12" style="edgeStyle=orthogonalEdgeStyle;rounded=0;orthogonalLoop=1;jettySize=auto;html=1;" parent="1" source="FtSz2_RMuhb_fogJ2mzA-2" target="FtSz2_RMuhb_fogJ2mzA-7" edge="1">
          <mxGeometry relative="1" as="geometry">
            <Array as="points">
              <mxPoint x="140" y="370" />
            </Array>
          </mxGeometry>
        </mxCell>
        <mxCell id="FtSz2_RMuhb_fogJ2mzA-13" value="Facilitator Information" style="edgeLabel;html=1;align=center;verticalAlign=middle;resizable=0;points=[];" parent="FtSz2_RMuhb_fogJ2mzA-12" vertex="1" connectable="0">
          <mxGeometry x="-0.2352" y="5" relative="1" as="geometry">
            <mxPoint x="61" y="5" as="offset" />
          </mxGeometry>
        </mxCell>
        <mxCell id="FtSz2_RMuhb_fogJ2mzA-21" style="edgeStyle=orthogonalEdgeStyle;orthogonalLoop=1;jettySize=auto;html=1;curved=1;" parent="1" source="FtSz2_RMuhb_fogJ2mzA-7" target="FtSz2_RMuhb_fogJ2mzA-15" edge="1">
          <mxGeometry relative="1" as="geometry">
            <Array as="points">
              <mxPoint x="560" y="380" />
              <mxPoint x="560" y="455" />
            </Array>
          </mxGeometry>
        </mxCell>
        <mxCell id="FtSz2_RMuhb_fogJ2mzA-22" value="Faciliator Information" style="edgeLabel;html=1;align=center;verticalAlign=middle;resizable=0;points=[];" parent="FtSz2_RMuhb_fogJ2mzA-21" vertex="1" connectable="0">
          <mxGeometry x="-0.3224" y="-2" relative="1" as="geometry">
            <mxPoint x="17" y="38" as="offset" />
          </mxGeometry>
        </mxCell>
        <mxCell id="FtSz2_RMuhb_fogJ2mzA-38" style="edgeStyle=orthogonalEdgeStyle;rounded=0;orthogonalLoop=1;jettySize=auto;html=1;" parent="1" source="FtSz2_RMuhb_fogJ2mzA-7" target="FtSz2_RMuhb_fogJ2mzA-2" edge="1">
          <mxGeometry relative="1" as="geometry">
            <Array as="points">
              <mxPoint x="160" y="330" />
            </Array>
          </mxGeometry>
        </mxCell>
        <mxCell id="FtSz2_RMuhb_fogJ2mzA-39" value="Facilitator Information" style="edgeLabel;html=1;align=center;verticalAlign=middle;resizable=0;points=[];" parent="FtSz2_RMuhb_fogJ2mzA-38" vertex="1" connectable="0">
          <mxGeometry x="0.1186" relative="1" as="geometry">
            <mxPoint as="offset" />
          </mxGeometry>
        </mxCell>
        <mxCell id="FtSz2_RMuhb_fogJ2mzA-7" value="1.2 Manage Facilitator Info" style="shape=ellipse;html=1;dashed=0;whiteSpace=wrap;aspect=fixed;perimeter=ellipsePerimeter;fillColor=#f8cecc;strokeColor=#b85450;" parent="1" vertex="1">
          <mxGeometry x="360" y="330" width="100" height="100" as="geometry" />
        </mxCell>
        <mxCell id="FtSz2_RMuhb_fogJ2mzA-8" value="" style="endArrow=classic;html=1;rounded=0;" parent="1" source="FtSz2_RMuhb_fogJ2mzA-2" target="FtSz2_RMuhb_fogJ2mzA-6" edge="1">
          <mxGeometry width="50" height="50" relative="1" as="geometry">
            <mxPoint x="230" y="330" as="sourcePoint" />
            <mxPoint x="280" y="280" as="targetPoint" />
          </mxGeometry>
        </mxCell>
        <mxCell id="FtSz2_RMuhb_fogJ2mzA-9" value="Student Information" style="edgeLabel;html=1;align=center;verticalAlign=middle;resizable=0;points=[];" parent="FtSz2_RMuhb_fogJ2mzA-8" vertex="1" connectable="0">
          <mxGeometry x="-0.2056" relative="1" as="geometry">
            <mxPoint x="-1" as="offset" />
          </mxGeometry>
        </mxCell>
        <mxCell id="FtSz2_RMuhb_fogJ2mzA-17" style="edgeStyle=orthogonalEdgeStyle;rounded=0;orthogonalLoop=1;jettySize=auto;html=1;" parent="1" source="FtSz2_RMuhb_fogJ2mzA-6" target="FtSz2_RMuhb_fogJ2mzA-14" edge="1">
          <mxGeometry relative="1" as="geometry" />
        </mxCell>
        <mxCell id="FtSz2_RMuhb_fogJ2mzA-18" value="Student Infomation" style="edgeLabel;html=1;align=center;verticalAlign=middle;resizable=0;points=[];" parent="FtSz2_RMuhb_fogJ2mzA-17" vertex="1" connectable="0">
          <mxGeometry x="-0.2686" y="2" relative="1" as="geometry">
            <mxPoint as="offset" />
          </mxGeometry>
        </mxCell>
        <mxCell id="FtSz2_RMuhb_fogJ2mzA-31" style="edgeStyle=orthogonalEdgeStyle;rounded=0;orthogonalLoop=1;jettySize=auto;html=1;" parent="1" source="FtSz2_RMuhb_fogJ2mzA-6" target="FtSz2_RMuhb_fogJ2mzA-5" edge="1">
          <mxGeometry relative="1" as="geometry">
            <mxPoint x="410" y="260" as="sourcePoint" />
            <mxPoint x="410" y="530" as="targetPoint" />
            <Array as="points">
              <mxPoint x="410" y="190" />
              <mxPoint x="780" y="190" />
              <mxPoint x="780" y="530" />
            </Array>
          </mxGeometry>
        </mxCell>
        <mxCell id="FtSz2_RMuhb_fogJ2mzA-32" value="Student Information" style="edgeLabel;html=1;align=center;verticalAlign=middle;resizable=0;points=[];" parent="FtSz2_RMuhb_fogJ2mzA-31" vertex="1" connectable="0">
          <mxGeometry x="-0.0248" y="1" relative="1" as="geometry">
            <mxPoint y="8" as="offset" />
          </mxGeometry>
        </mxCell>
        <mxCell id="FtSz2_RMuhb_fogJ2mzA-36" style="edgeStyle=orthogonalEdgeStyle;rounded=0;orthogonalLoop=1;jettySize=auto;html=1;" parent="1" source="FtSz2_RMuhb_fogJ2mzA-6" target="FtSz2_RMuhb_fogJ2mzA-2" edge="1">
          <mxGeometry relative="1" as="geometry">
            <Array as="points">
              <mxPoint x="130" y="210" />
            </Array>
          </mxGeometry>
        </mxCell>
        <mxCell id="FtSz2_RMuhb_fogJ2mzA-37" value="Student Information" style="edgeLabel;html=1;align=center;verticalAlign=middle;resizable=0;points=[];" parent="FtSz2_RMuhb_fogJ2mzA-36" vertex="1" connectable="0">
          <mxGeometry x="0.1475" y="1" relative="1" as="geometry">
            <mxPoint as="offset" />
          </mxGeometry>
        </mxCell>
        <mxCell id="YnWaJ26N7Ll4d-mpSulk-4" style="edgeStyle=orthogonalEdgeStyle;rounded=0;orthogonalLoop=1;jettySize=auto;html=1;" edge="1" parent="1" source="FtSz2_RMuhb_fogJ2mzA-6" target="YnWaJ26N7Ll4d-mpSulk-1">
          <mxGeometry relative="1" as="geometry">
            <Array as="points">
              <mxPoint x="410" y="160" />
              <mxPoint x="140" y="160" />
            </Array>
          </mxGeometry>
        </mxCell>
        <mxCell id="YnWaJ26N7Ll4d-mpSulk-5" value="Student Information" style="edgeLabel;html=1;align=center;verticalAlign=middle;resizable=0;points=[];" vertex="1" connectable="0" parent="YnWaJ26N7Ll4d-mpSulk-4">
          <mxGeometry x="0.2909" y="3" relative="1" as="geometry">
            <mxPoint as="offset" />
          </mxGeometry>
        </mxCell>
        <mxCell id="FtSz2_RMuhb_fogJ2mzA-6" value="1.1 Manage student info" style="shape=ellipse;html=1;dashed=0;whiteSpace=wrap;aspect=fixed;perimeter=ellipsePerimeter;fillColor=#f8cecc;strokeColor=#b85450;" parent="1" vertex="1">
          <mxGeometry x="360" y="210" width="100" height="100" as="geometry" />
        </mxCell>
        <mxCell id="FtSz2_RMuhb_fogJ2mzA-19" style="edgeStyle=orthogonalEdgeStyle;rounded=0;orthogonalLoop=1;jettySize=auto;html=1;" parent="1" source="FtSz2_RMuhb_fogJ2mzA-14" target="FtSz2_RMuhb_fogJ2mzA-6" edge="1">
          <mxGeometry relative="1" as="geometry">
            <Array as="points">
              <mxPoint x="600" y="405" />
              <mxPoint x="600" y="320" />
              <mxPoint x="410" y="320" />
            </Array>
          </mxGeometry>
        </mxCell>
        <mxCell id="FtSz2_RMuhb_fogJ2mzA-20" value="Student Information" style="edgeLabel;html=1;align=center;verticalAlign=middle;resizable=0;points=[];" parent="FtSz2_RMuhb_fogJ2mzA-19" vertex="1" connectable="0">
          <mxGeometry x="0.2254" y="-3" relative="1" as="geometry">
            <mxPoint as="offset" />
          </mxGeometry>
        </mxCell>
        <mxCell id="FtSz2_RMuhb_fogJ2mzA-14" value="StudentDB" style="html=1;dashed=0;whiteSpace=wrap;shape=partialRectangle;right=0;fillColor=#f8cecc;strokeColor=#f8cecc;" parent="1" vertex="1">
          <mxGeometry x="630" y="390" width="100" height="30" as="geometry" />
        </mxCell>
        <mxCell id="FtSz2_RMuhb_fogJ2mzA-15" value="FacilitatorDB" style="html=1;dashed=0;whiteSpace=wrap;shape=partialRectangle;right=0;fillColor=#f8cecc;strokeColor=#f8cecc;" parent="1" vertex="1">
          <mxGeometry x="630" y="440" width="100" height="30" as="geometry" />
        </mxCell>
        <mxCell id="FtSz2_RMuhb_fogJ2mzA-40" style="edgeStyle=orthogonalEdgeStyle;rounded=0;orthogonalLoop=1;jettySize=auto;html=1;" parent="1" source="FtSz2_RMuhb_fogJ2mzA-16" target="FtSz2_RMuhb_fogJ2mzA-5" edge="1">
          <mxGeometry relative="1" as="geometry">
            <Array as="points">
              <mxPoint x="670" y="600" />
              <mxPoint x="410" y="600" />
            </Array>
          </mxGeometry>
        </mxCell>
        <mxCell id="FtSz2_RMuhb_fogJ2mzA-41" value="Certificate Details" style="edgeLabel;html=1;align=center;verticalAlign=middle;resizable=0;points=[];" parent="FtSz2_RMuhb_fogJ2mzA-40" vertex="1" connectable="0">
          <mxGeometry x="0.2133" y="-1" relative="1" as="geometry">
            <mxPoint as="offset" />
          </mxGeometry>
        </mxCell>
        <mxCell id="FtSz2_RMuhb_fogJ2mzA-16" value="CertificateDB" style="html=1;dashed=0;whiteSpace=wrap;shape=partialRectangle;right=0;fillColor=#f8cecc;strokeColor=#f8cecc;" parent="1" vertex="1">
          <mxGeometry x="640" y="550" width="100" height="30" as="geometry" />
        </mxCell>
        <mxCell id="FtSz2_RMuhb_fogJ2mzA-23" style="edgeStyle=orthogonalEdgeStyle;rounded=0;orthogonalLoop=1;jettySize=auto;html=1;" parent="1" source="FtSz2_RMuhb_fogJ2mzA-15" target="FtSz2_RMuhb_fogJ2mzA-7" edge="1">
          <mxGeometry relative="1" as="geometry">
            <mxPoint x="640" y="465" as="sourcePoint" />
            <mxPoint x="470" y="390" as="targetPoint" />
            <Array as="points">
              <mxPoint x="500" y="465" />
              <mxPoint x="500" y="390" />
            </Array>
          </mxGeometry>
        </mxCell>
        <mxCell id="FtSz2_RMuhb_fogJ2mzA-24" value="Faciliator Information" style="edgeLabel;html=1;align=center;verticalAlign=middle;resizable=0;points=[];" parent="FtSz2_RMuhb_fogJ2mzA-23" vertex="1" connectable="0">
          <mxGeometry x="-0.3224" y="-2" relative="1" as="geometry">
            <mxPoint x="-47" y="-23" as="offset" />
          </mxGeometry>
        </mxCell>
        <mxCell id="FtSz2_RMuhb_fogJ2mzA-25" style="edgeStyle=orthogonalEdgeStyle;rounded=0;orthogonalLoop=1;jettySize=auto;html=1;" parent="1" source="FtSz2_RMuhb_fogJ2mzA-3" target="FtSz2_RMuhb_fogJ2mzA-7" edge="1">
          <mxGeometry relative="1" as="geometry">
            <mxPoint x="150" y="295" as="sourcePoint" />
            <mxPoint x="371" y="380" as="targetPoint" />
            <Array as="points">
              <mxPoint x="100" y="380" />
            </Array>
          </mxGeometry>
        </mxCell>
        <mxCell id="FtSz2_RMuhb_fogJ2mzA-26" value="Facilitator Information" style="edgeLabel;html=1;align=center;verticalAlign=middle;resizable=0;points=[];" parent="FtSz2_RMuhb_fogJ2mzA-25" vertex="1" connectable="0">
          <mxGeometry x="-0.2352" y="5" relative="1" as="geometry">
            <mxPoint x="61" y="5" as="offset" />
          </mxGeometry>
        </mxCell>
        <mxCell id="FtSz2_RMuhb_fogJ2mzA-29" style="edgeStyle=orthogonalEdgeStyle;rounded=0;orthogonalLoop=1;jettySize=auto;html=1;" parent="1" source="FtSz2_RMuhb_fogJ2mzA-7" target="FtSz2_RMuhb_fogJ2mzA-3" edge="1">
          <mxGeometry relative="1" as="geometry">
            <mxPoint x="410" y="440" as="sourcePoint" />
            <mxPoint x="110" y="490" as="targetPoint" />
            <Array as="points">
              <mxPoint x="410" y="440" />
              <mxPoint x="110" y="440" />
            </Array>
          </mxGeometry>
        </mxCell>
        <mxCell id="FtSz2_RMuhb_fogJ2mzA-30" value="Facilitator Information" style="edgeLabel;html=1;align=center;verticalAlign=middle;resizable=0;points=[];" parent="FtSz2_RMuhb_fogJ2mzA-29" vertex="1" connectable="0">
          <mxGeometry x="-0.2352" y="5" relative="1" as="geometry">
            <mxPoint y="-5" as="offset" />
          </mxGeometry>
        </mxCell>
        <mxCell id="YnWaJ26N7Ll4d-mpSulk-2" style="edgeStyle=orthogonalEdgeStyle;rounded=0;orthogonalLoop=1;jettySize=auto;html=1;" edge="1" parent="1" source="YnWaJ26N7Ll4d-mpSulk-1" target="FtSz2_RMuhb_fogJ2mzA-6">
          <mxGeometry relative="1" as="geometry" />
        </mxCell>
        <mxCell id="YnWaJ26N7Ll4d-mpSulk-3" value="Student Information" style="edgeLabel;html=1;align=center;verticalAlign=middle;resizable=0;points=[];" vertex="1" connectable="0" parent="YnWaJ26N7Ll4d-mpSulk-2">
          <mxGeometry x="-0.4557" relative="1" as="geometry">
            <mxPoint as="offset" />
          </mxGeometry>
        </mxCell>
        <mxCell id="YnWaJ26N7Ll4d-mpSulk-1" value="Facilitator" style="html=1;dashed=0;whiteSpace=wrap;fillColor=#ffe6cc;strokeColor=#d79b00;" vertex="1" parent="1">
          <mxGeometry x="90" y="100" width="100" height="50" as="geometry" />
        </mxCell>
      </root>
    </mxGraphModel>
  </diagram>
</mxfile>
